# FreeCAD v0.21 build2 Arch module
# http://www.freecad.org
mtllib block.mtl
o block
usemtl color_cccccc
v 0.0 0.0 0.0
v 0.0 0.0 5.0
v 0.0 5.0 0.0
v 0.0 5.0 5.0
v 5.0 0.0 0.0
v 5.0 0.0 5.0
v 5.0 5.0 0.0
v 5.0 5.0 5.0
vn 0.0 0.0 1.0
vn 0.0 0.0 1.0
vn 0.0 0.0 -1.0
vn 0.0 0.0 -1.0
vn 0.0 -1.0 0.0
vn 0.0 -1.0 0.0
vn 1.0 0.0 0.0
vn 1.0 0.0 0.0
vn 0.0 1.0 0.0
vn 0.0 1.0 0.0
vn -1.0 0.0 0.0
vn -1.0 0.0 0.0
f 8//1 4//1 6//1 
f 2//2 6//2 4//2 
f 5//3 1//3 7//3 
f 3//4 7//4 1//4 
f 2//5 1//5 6//5 
f 5//6 6//6 1//6 
f 8//7 6//7 7//7 
f 5//8 7//8 6//8 
f 8//9 7//9 4//9 
f 3//10 4//10 7//10 
f 3//11 1//11 4//11 
f 2//12 4//12 1//12 
