# FreeCAD v0.21 build2 Arch module
# http://www.freecad.org
mtllib ramp_round.mtl
o ramp_round
usemtl color_cccccc
v 0.0 5.0 0.0
v 0.0 0.0 0.0
v 0.0 5.0 5.0
v 0.0 0.0 5.0
v 0.002467 4.842947 0.0
v 0.002467 4.842947 5.0
v 0.009866 4.686048 0.0
v 0.009866 4.686048 5.0
v 0.02219 4.529459 0.0
v 0.02219 4.529459 5.0
v 0.039426 4.373334 0.0
v 0.039426 4.373334 5.0
v 0.061558 4.217828 0.0
v 0.061558 4.217828 5.0
v 0.088563 4.063094 0.0
v 0.088563 4.063094 5.0
v 0.120416 3.909285 0.0
v 0.120416 3.909285 5.0
v 0.157084 3.756551 0.0
v 0.157084 3.756551 5.0
v 0.198531 3.605045 0.0
v 0.198531 3.605045 5.0
v 0.244717 3.454915 0.0
v 0.244717 3.454915 5.0
v 0.295596 3.306311 0.0
v 0.295596 3.306311 5.0
v 0.351117 3.159378 0.0
v 0.351117 3.159378 5.0
v 0.411226 3.014261 0.0
v 0.411226 3.014261 5.0
v 0.475864 2.871104 0.0
v 0.475864 2.871104 5.0
v 0.544967 2.730048 0.0
v 0.544967 2.730048 5.0
v 0.618466 2.591232 0.0
v 0.618466 2.591232 5.0
v 0.696289 2.454793 0.0
v 0.696289 2.454793 5.0
v 0.77836 2.320867 0.0
v 0.77836 2.320867 5.0
v 0.864596 2.189584 0.0
v 0.864596 2.189584 5.0
v 0.954914 2.061074 0.0
v 0.954914 2.061074 5.0
v 1.049225 1.935465 0.0
v 1.049225 1.935465 5.0
v 1.147433 1.812881 0.0
v 1.147433 1.812881 5.0
v 1.249444 1.693441 0.0
v 1.249444 1.693441 5.0
v 1.355156 1.577265 0.0
v 1.355156 1.577265 5.0
v 1.464465 1.464466 0.0
v 1.464465 1.464466 5.0
v 1.577264 1.355157 0.0
v 1.577264 1.355157 5.0
v 1.69344 1.249445 0.0
v 1.69344 1.249445 5.0
v 1.81288 1.147434 0.0
v 1.81288 1.147434 5.0
v 1.935464 1.049226 0.0
v 1.935464 1.049226 5.0
v 2.061073 0.954915 0.0
v 2.061073 0.954915 5.0
v 2.189583 0.864597 0.0
v 2.189583 0.864597 5.0
v 2.320866 0.778361 0.0
v 2.320866 0.778361 5.0
v 2.454792 0.69629 0.0
v 2.454792 0.69629 5.0
v 2.591231 0.618467 0.0
v 2.591231 0.618467 5.0
v 2.730047 0.544968 0.0
v 2.730047 0.544968 5.0
v 2.871103 0.475865 0.0
v 2.871103 0.475865 5.0
v 3.01426 0.411227 0.0
v 3.01426 0.411227 5.0
v 3.159377 0.351118 0.0
v 3.159377 0.351118 5.0
v 3.30631 0.295597 0.0
v 3.30631 0.295597 5.0
v 3.454914 0.244718 0.0
v 3.454914 0.244718 5.0
v 3.605044 0.198532 0.0
v 3.605044 0.198532 5.0
v 3.75655 0.157084 0.0
v 3.75655 0.157084 5.0
v 3.909284 0.120417 0.0
v 3.909284 0.120417 5.0
v 4.063093 0.088564 0.0
v 4.063093 0.088564 5.0
v 4.217827 0.061559 0.0
v 4.217827 0.061559 5.0
v 4.373333 0.039427 0.0
v 4.373333 0.039427 5.0
v 4.529458 0.022191 0.0
v 4.529458 0.022191 5.0
v 4.686047 0.009867 0.0
v 4.686047 0.009867 5.0
v 4.842946 0.002468 0.0
v 4.842946 0.002468 5.0
v 5.0 0.0 0.0
v 5.0 0.0 5.0
vn 0.0 -1.0 0.0
vn 0.0 -1.0 0.0
vn -1.0 -0.0 -0.0
vn -1.0 0.0 0.0
vn 0.0 0.0 1.0
vn 0.0 0.0 1.0
vn 0.0 0.0 1.0
vn 0.0 0.0 1.0
vn 0.0 0.0 1.0
vn 0.0 0.0 1.0
vn 0.0 0.0 1.0
vn 0.0 0.0 1.0
vn 0.0 0.0 1.0
vn 0.0 0.0 1.0
vn 0.0 0.0 1.0
vn 0.0 0.0 1.0
vn 0.0 0.0 1.0
vn 0.0 0.0 1.0
vn 0.0 0.0 1.0
vn 0.0 0.0 1.0
vn 0.0 0.0 1.0
vn 0.0 0.0 1.0
vn 0.0 0.0 1.0
vn 0.0 0.0 1.0
vn 0.0 0.0 1.0
vn 0.0 0.0 1.0
vn 0.0 0.0 1.0
vn 0.0 0.0 1.0
vn 0.0 0.0 1.0
vn 0.0 0.0 1.0
vn 0.0 0.0 1.0
vn 0.0 0.0 1.0
vn 0.0 0.0 1.0
vn 0.0 0.0 1.0
vn 0.0 0.0 1.0
vn 0.0 0.0 1.0
vn 0.0 0.0 1.0
vn 0.0 0.0 1.0
vn 0.0 0.0 1.0
vn 0.0 0.0 1.0
vn 0.0 0.0 1.0
vn 0.0 0.0 1.0
vn 0.0 0.0 1.0
vn 0.0 0.0 1.0
vn 0.0 0.0 1.0
vn 0.0 0.0 1.0
vn 0.0 0.0 1.0
vn 0.0 0.0 1.0
vn 0.0 0.0 1.0
vn 0.0 0.0 1.0
vn 0.0 0.0 1.0
vn 0.0 0.0 1.0
vn 0.0 0.0 1.0
vn 0.0 0.0 1.0
vn -0.0 -0.0 -1.0
vn 0.0 -0.0 -1.0
vn 0.0 -0.0 -1.0
vn 0.0 -0.0 -1.0
vn 0.0 -0.0 -1.0
vn 0.0 -0.0 -1.0
vn 0.0 -0.0 -1.0
vn 0.0 -0.0 -1.0
vn 0.0 -0.0 -1.0
vn 0.0 -0.0 -1.0
vn 0.0 -0.0 -1.0
vn 0.0 -0.0 -1.0
vn 0.0 -0.0 -1.0
vn 0.0 -0.0 -1.0
vn 0.0 -0.0 -1.0
vn 0.0 -0.0 -1.0
vn 0.0 -0.0 -1.0
vn 0.0 -0.0 -1.0
vn 0.0 -0.0 -1.0
vn 0.0 -0.0 -1.0
vn 0.0 -0.0 -1.0
vn 0.0 -0.0 -1.0
vn 0.0 -0.0 -1.0
vn 0.0 -0.0 -1.0
vn 0.0 -0.0 -1.0
vn 0.0 -0.0 -1.0
vn 0.0 -0.0 -1.0
vn 0.0 -0.0 -1.0
vn 0.0 -0.0 -1.0
vn 0.0 -0.0 -1.0
vn 0.0 -0.0 -1.0
vn 0.0 -0.0 -1.0
vn 0.0 -0.0 -1.0
vn 0.0 -0.0 -1.0
vn 0.0 -0.0 -1.0
vn 0.0 -0.0 -1.0
vn 0.0 -0.0 -1.0
vn 0.0 -0.0 -1.0
vn 0.0 -0.0 -1.0
vn 0.0 -0.0 -1.0
vn 0.0 -0.0 -1.0
vn 0.0 -0.0 -1.0
vn 0.0 -0.0 -1.0
vn 0.0 -0.0 -1.0
vn 0.0 -0.0 -1.0
vn 0.0 -0.0 -1.0
vn 0.0 -0.0 -1.0
vn 0.0 -0.0 -1.0
vn 0.0 -0.0 -1.0
vn 0.0 -0.0 -1.0
vn 0.140902 0.990024 -0.0
vn 0.140902 0.990024 0.0
vn 0.625242 0.780431 -0.0
vn 0.625242 0.780431 0.0
vn 0.10973 0.993961 -0.0
vn 0.10973 0.993961 0.0
vn 0.718127 0.695912 0.0
vn 0.718127 0.695912 -0.0
vn 0.990024 0.140902 0.0
vn 0.990024 0.140902 -0.0
vn 0.047103 0.99889 -0.0
vn 0.047103 0.99889 0.0
vn 0.835809 0.54902 0.0
vn 0.835809 0.54902 -0.0
vn 0.649448 0.760406 -0.0
vn 0.649448 0.760406 0.0
vn 0.999877 0.015707 0.0
vn 0.999877 0.015707 -0.0
vn 0.67301 0.739633 -0.0
vn 0.67301 0.739633 0.0
vn 0.015713 0.999876 -0.0
vn 0.015713 0.999876 0.0
vn 0.695912 0.718127 -0.0
vn 0.695912 0.718127 0.0
vn 0.522504 0.852637 -0.0
vn 0.522504 0.852637 0.0
vn 0.411516 0.911403 -0.0
vn 0.411516 0.911403 0.0
vn 0.868634 0.495454 0.0
vn 0.868634 0.495454 -0.0
vn 0.54902 0.835809 -0.0
vn 0.54902 0.835809 0.0
vn 0.078463 0.996917 -0.0
vn 0.078463 0.996917 0.0
vn 0.996917 0.078463 0.0
vn 0.996917 0.078463 -0.0
vn 0.911403 0.411516 0.0
vn 0.911403 0.411516 -0.0
vn 0.739633 0.67301 0.0
vn 0.739633 0.67301 -0.0
vn 0.799683 0.600423 0.0
vn 0.799683 0.600423 -0.0
vn 0.263876 0.964557 -0.0
vn 0.263876 0.964557 0.0
vn 0.818151 0.575004 0.0
vn 0.818151 0.575004 -0.0
vn 0.993961 0.10973 0.0
vn 0.993961 0.10973 -0.0
vn 0.382682 0.92388 -0.0
vn 0.382682 0.92388 0.0
vn 0.202789 0.979222 -0.0
vn 0.202789 0.979222 0.0
vn 0.439937 0.898028 -0.0
vn 0.439937 0.898028 0.0
vn 0.495454 0.868634 -0.0
vn 0.495454 0.868634 0.0
vn 0.353474 0.935444 -0.0
vn 0.353474 0.935444 0.0
vn 0.600423 0.799683 -0.0
vn 0.600423 0.799683 0.0
vn 0.955794 0.294037 0.0
vn 0.955794 0.294037 -0.0
vn 0.98511 0.171928 0.0
vn 0.98511 0.171928 -0.0
vn 0.99889 0.047103 0.0
vn 0.99889 0.047103 -0.0
vn 0.575004 0.818151 -0.0
vn 0.575004 0.818151 0.0
vn 0.294037 0.955794 -0.0
vn 0.294037 0.955794 0.0
vn 0.97237 0.233443 0.0
vn 0.97237 0.233443 -0.0
vn 0.233443 0.97237 -0.0
vn 0.233443 0.97237 0.0
vn 0.946084 0.323922 0.0
vn 0.946084 0.323922 -0.0
vn 0.171928 0.98511 -0.0
vn 0.171928 0.98511 0.0
vn 0.964557 0.263876 0.0
vn 0.964557 0.263876 -0.0
vn 0.979222 0.202789 0.0
vn 0.979222 0.202789 -0.0
vn 0.852637 0.522504 0.0
vn 0.852637 0.522504 -0.0
vn 0.935444 0.353474 0.0
vn 0.935444 0.353474 -0.0
vn 0.780431 0.625242 0.0
vn 0.780431 0.625242 -0.0
vn 0.898028 0.439937 0.0
vn 0.898028 0.439937 -0.0
vn 0.323922 0.946084 -0.0
vn 0.323922 0.946084 0.0
vn 0.760406 0.649448 0.0
vn 0.760406 0.649448 -0.0
vn 0.467932 0.883764 -0.0
vn 0.467932 0.883764 0.0
vn 0.92388 0.382682 0.0
vn 0.92388 0.382682 -0.0
vn 0.883764 0.467932 0.0
vn 0.883764 0.467932 -0.0
f 104//1 4//1 103//1 
f 2//2 103//2 4//2 
f 3//3 1//3 4//3 
f 2//4 4//4 1//4 
f 104//5 102//5 4//5 
f 102//6 100//6 4//6 
f 100//7 98//7 4//7 
f 98//8 96//8 4//8 
f 96//9 94//9 4//9 
f 94//10 92//10 4//10 
f 92//11 90//11 4//11 
f 90//12 88//12 4//12 
f 88//13 86//13 4//13 
f 86//14 84//14 4//14 
f 84//15 82//15 4//15 
f 82//16 80//16 4//16 
f 80//17 78//17 4//17 
f 78//18 76//18 4//18 
f 76//19 74//19 4//19 
f 74//20 72//20 4//20 
f 72//21 70//21 4//21 
f 70//22 68//22 4//22 
f 68//23 66//23 4//23 
f 66//24 64//24 4//24 
f 64//25 62//25 4//25 
f 62//26 60//26 4//26 
f 60//27 58//27 4//27 
f 58//28 56//28 4//28 
f 56//29 54//29 4//29 
f 54//30 52//30 4//30 
f 52//31 50//31 4//31 
f 50//32 48//32 4//32 
f 48//33 46//33 4//33 
f 46//34 44//34 4//34 
f 44//35 42//35 4//35 
f 42//36 40//36 4//36 
f 40//37 38//37 4//37 
f 38//38 36//38 4//38 
f 36//39 34//39 4//39 
f 34//40 32//40 4//40 
f 32//41 30//41 4//41 
f 30//42 28//42 4//42 
f 28//43 26//43 4//43 
f 26//44 24//44 4//44 
f 24//45 22//45 4//45 
f 22//46 20//46 4//46 
f 20//47 18//47 4//47 
f 18//48 16//48 4//48 
f 16//49 14//49 4//49 
f 14//50 12//50 4//50 
f 12//51 10//51 4//51 
f 10//52 8//52 4//52 
f 8//53 6//53 4//53 
f 3//54 4//54 6//54 
f 103//55 2//55 101//55 
f 101//56 2//56 99//56 
f 99//57 2//57 97//57 
f 97//58 2//58 95//58 
f 95//59 2//59 93//59 
f 93//60 2//60 91//60 
f 91//61 2//61 89//61 
f 89//62 2//62 87//62 
f 87//63 2//63 85//63 
f 85//64 2//64 83//64 
f 83//65 2//65 81//65 
f 81//66 2//66 79//66 
f 79//67 2//67 77//67 
f 77//68 2//68 75//68 
f 75//69 2//69 73//69 
f 73//70 2//70 71//70 
f 71//71 2//71 69//71 
f 69//72 2//72 67//72 
f 67//73 2//73 65//73 
f 65//74 2//74 63//74 
f 63//75 2//75 61//75 
f 61//76 2//76 59//76 
f 59//77 2//77 57//77 
f 57//78 2//78 55//78 
f 55//79 2//79 53//79 
f 53//80 2//80 51//80 
f 51//81 2//81 49//81 
f 49//82 2//82 47//82 
f 47//83 2//83 45//83 
f 45//84 2//84 43//84 
f 43//85 2//85 41//85 
f 41//86 2//86 39//86 
f 39//87 2//87 37//87 
f 37//88 2//88 35//88 
f 35//89 2//89 33//89 
f 33//90 2//90 31//90 
f 31//91 2//91 29//91 
f 29//92 2//92 27//92 
f 27//93 2//93 25//93 
f 25//94 2//94 23//94 
f 23//95 2//95 21//95 
f 21//96 2//96 19//96 
f 19//97 2//97 17//97 
f 17//98 2//98 15//98 
f 15//99 2//99 13//99 
f 13//100 2//100 11//100 
f 11//101 2//101 9//101 
f 9//102 2//102 7//102 
f 7//103 2//103 5//103 
f 1//104 5//104 2//104 
f 95//105 93//105 96//105 
f 94//106 96//106 93//106 
f 61//107 59//107 62//107 
f 60//108 62//108 59//108 
f 97//109 95//109 98//109 
f 96//110 98//110 95//110 
f 54//111 53//111 52//111 
f 51//112 52//112 53//112 
f 14//113 13//113 12//113 
f 11//114 12//114 13//114 
f 101//115 99//115 102//115 
f 100//116 102//116 99//116 
f 42//117 41//117 40//117 
f 39//118 40//118 41//118 
f 59//119 57//119 60//119 
f 58//120 60//120 57//120 
f 6//121 5//121 3//121 
f 1//122 3//122 5//122 
f 57//123 55//123 58//123 
f 56//124 58//124 55//124 
f 103//125 101//125 104//125 
f 102//126 104//126 101//126 
f 55//127 53//127 56//127 
f 54//128 56//128 53//128 
f 69//129 67//129 70//129 
f 68//130 70//130 67//130 
f 77//131 75//131 78//131 
f 76//132 78//132 75//132 
f 38//133 37//133 36//133 
f 35//134 36//134 37//134 
f 67//135 65//135 68//135 
f 66//136 68//136 65//136 
f 99//137 97//137 100//137 
f 98//138 100//138 97//138 
f 10//139 9//139 8//139 
f 7//140 8//140 9//140 
f 32//141 31//141 30//141 
f 29//142 30//142 31//142 
f 52//143 51//143 50//143 
f 49//144 50//144 51//144 
f 46//145 45//145 44//145 
f 43//146 44//146 45//146 
f 87//147 85//147 88//147 
f 86//148 88//148 85//148 
f 44//149 43//149 42//149 
f 41//150 42//150 43//150 
f 12//151 11//151 10//151 
f 9//152 10//152 11//152 
f 79//153 77//153 80//153 
f 78//154 80//154 77//154 
f 91//155 89//155 92//155 
f 90//156 92//156 89//156 
f 75//157 73//157 76//157 
f 74//158 76//158 73//158 
f 71//159 69//159 72//159 
f 70//160 72//160 69//160 
f 81//161 79//161 82//161 
f 80//162 82//162 79//162 
f 63//163 61//163 64//163 
f 62//164 64//164 61//164 
f 24//165 23//165 22//165 
f 21//166 22//166 23//166 
f 16//167 15//167 14//167 
f 13//168 14//168 15//168 
f 8//169 7//169 6//169 
f 5//170 6//170 7//170 
f 65//171 63//171 66//171 
f 64//172 66//172 63//172 
f 85//173 83//173 86//173 
f 84//174 86//174 83//174 
f 20//175 19//175 18//175 
f 17//176 18//176 19//176 
f 89//177 87//177 90//177 
f 88//178 90//178 87//178 
f 26//179 25//179 24//179 
f 23//180 24//180 25//180 
f 93//181 91//181 94//181 
f 92//182 94//182 91//182 
f 22//183 21//183 20//183 
f 19//184 20//184 21//184 
f 18//185 17//185 16//185 
f 15//186 16//186 17//186 
f 40//187 39//187 38//187 
f 37//188 38//188 39//188 
f 28//189 27//189 26//189 
f 25//190 26//190 27//190 
f 48//191 47//191 46//191 
f 45//192 46//192 47//192 
f 34//193 33//193 32//193 
f 31//194 32//194 33//194 
f 83//195 81//195 84//195 
f 82//196 84//196 81//196 
f 50//197 49//197 48//197 
f 47//198 48//198 49//198 
f 73//199 71//199 74//199 
f 72//200 74//200 71//200 
f 30//201 29//201 28//201 
f 27//202 28//202 29//202 
f 36//203 35//203 34//203 
f 33//204 34//204 35//204 
